<?xml version="1.0" encoding="UTF-8"?>
<svg version="1.1" xmlns="http://www.w3.org/2000/svg" width="2160" height="2160">
<path d="M0 0 C61.83896039 -1.0155421 126.53659456 11.3623696 175.81640625 51.06201172 C177.17572266 52.13515625 177.17572266 52.13515625 178.5625 53.22998047 C185.60176333 58.8713759 192.25467301 64.87936073 198.81640625 71.06201172 C199.99009766 72.15449219 199.99009766 72.15449219 201.1875 73.26904297 C214.89056705 86.43473484 225.36028534 102.69996881 234.81640625 119.06201172 C235.15816895 119.64547363 235.49993164 120.22893555 235.85205078 120.83007812 C255.60389729 154.82409633 263.03522934 194.75921 263.06640625 233.68701172 C263.06741837 234.83369324 263.06741837 234.83369324 263.06845093 236.00354004 C263.04874001 250.17992689 262.13357822 264.05682 259.81640625 278.06201172 C259.66075195 279.00302734 259.50509766 279.94404297 259.34472656 280.91357422 C250.24634463 333.07036644 223.53835122 384.09349436 186.81640625 422.06201172 C186.1836377 422.71669434 185.55086914 423.37137695 184.89892578 424.04589844 C176.93166446 432.2447101 168.9279869 440.12633093 159.81640625 447.06201172 C159.12095703 447.60148437 158.42550781 448.14095703 157.70898438 448.69677734 C145.84089227 457.89677214 133.70578824 466.35810318 120.81640625 474.06201172 C120.0171875 474.54202637 119.21796875 475.02204102 118.39453125 475.51660156 C89.07725339 493.00543153 58.12713258 506.64347428 26.25390625 518.68701172 C25.20323975 519.08887695 24.15257324 519.49074219 23.07006836 519.90478516 C3.23627862 527.22948651 -15.94105514 528.85434605 -35.62109375 520.62451172 C-70.62775991 503.12117864 -89.56083735 462.72371575 -101.54394531 427.59692383 C-105.89967911 414.30019748 -108.84435209 400.84477356 -111.18359375 387.06201172 C-111.38057861 385.96832275 -111.38057861 385.96832275 -111.58154297 384.85253906 C-113.20143655 375.70343464 -113.40265108 366.58227692 -113.49609375 357.31201172 C-113.51389893 356.18682129 -113.5317041 355.06163086 -113.55004883 353.90234375 C-113.54053055 343.93158385 -112.52296275 333.13306138 -106.18359375 325.06201172 C-102.97835064 322.77073447 -99.57464869 321.01517563 -96.05859375 319.24951172 C-94.05959443 318.20190955 -92.06090049 317.15372449 -90.0625 316.10498047 C-88.57000732 315.33420166 -88.57000732 315.33420166 -87.04736328 314.54785156 C-63.09911195 302.12252696 -39.64132827 287.73594059 -19.18359375 270.06201172 C-18.36890625 269.35818359 -17.55421875 268.65435547 -16.71484375 267.92919922 C-14.16579078 265.67861131 -11.66711533 263.38470284 -9.18359375 261.06201172 C-8.22453125 260.16869141 -7.26546875 259.27537109 -6.27734375 258.35498047 C10.37173694 242.49884157 25.4440013 220.62169359 27.01953125 197.01904297 C27.24344377 181.99824484 22.81481689 170.49555372 12.51171875 159.54638672 C-7.9848033 140.65394031 -36.46812399 137.26747944 -63.19677734 137.93457031 C-92.20715365 139.17238431 -119.53509651 153.120561 -143.18359375 169.06201172 C-143.78075195 169.46242676 -144.37791016 169.8628418 -144.99316406 170.27539062 C-155.88461722 177.64418577 -166.23959106 185.8895866 -175.43359375 195.31201172 C-176.79484375 196.67326172 -176.79484375 196.67326172 -178.18359375 198.06201172 C-178.84359375 198.06201172 -179.50359375 198.06201172 -180.18359375 198.06201172 C-180.55677734 198.93212891 -180.55677734 198.93212891 -180.9375 199.81982422 C-182.36276443 202.3844066 -183.97333199 203.9407196 -186.12109375 205.93701172 C-191.51358024 211.22645706 -196.09221926 217.01339935 -200.63867188 223.02099609 C-201.70290546 224.4269684 -202.77222534 225.82910036 -203.84570312 227.22802734 C-253.13522317 291.55502808 -274.90176435 372.22450526 -284.43359375 451.56201172 C-284.66030762 453.43373047 -284.66030762 453.43373047 -284.89160156 455.34326172 C-287.56952964 478.94288067 -288.56407038 502.50741779 -288.49609375 526.24951172 C-288.49416768 527.59475696 -288.49232743 528.94000233 -288.49057007 530.2852478 C-288.45246118 550.3754412 -287.9307031 570.13882695 -285.18359375 590.06201172 C-285.00460933 591.40621361 -284.8259068 592.75045307 -284.64746094 594.09472656 C-278.85671775 637.12894514 -269.10633444 684.66675957 -238.18359375 717.06201172 C-237.64476562 717.67560547 -237.1059375 718.28919922 -236.55078125 718.92138672 C-224.93644123 731.64463357 -207.74534495 738.68221804 -190.875 740.28076172 C-161.08523987 741.48641812 -133.42371179 724.35215673 -112.30859375 704.99951172 C-98.70129349 692.20234159 -87.01964855 677.69168676 -77.74414062 661.46557617 C-73.90853367 654.97655834 -68.73728322 649.92669235 -61.4453125 647.59326172 C-13.90391216 636.42636976 51.65521325 675.17317912 90.81640625 699.06201172 C107.09008779 709.66572984 118.37038314 724.34489019 123.81640625 743.06201172 C124.04070312 743.81095703 124.265 744.55990234 124.49609375 745.33154297 C129.54699897 765.63894958 124.10707687 785.47702024 113.81640625 803.06201172 C105.86620533 816.18312844 96.54900571 828.36683147 86.1015625 839.58935547 C84.18736742 841.66061271 82.37053014 843.77115873 80.56640625 845.93701172 C40.97307598 891.29275156 -24.32430277 916.90596461 -83.18359375 922.06201172 C-84.28574219 922.17158203 -85.38789062 922.28115234 -86.5234375 922.39404297 C-120.93573677 925.29721782 -155.84017599 922.1243737 -189.23120117 913.46118164 C-190.08689697 913.24953369 -190.94259277 913.03788574 -191.82421875 912.81982422 C-192.94618652 912.52809326 -192.94618652 912.52809326 -194.09082031 912.23046875 C-196.72133414 912.0187265 -197.97411761 912.67028079 -200.18359375 914.06201172 C-201.83864385 915.72834049 -201.83864385 915.72834049 -203.37109375 917.68701172 C-214.93136544 931.19838412 -230.95220515 941.41977964 -249.05078125 942.97216797 C-285.67393961 944.51490175 -314.77685731 929.05220436 -341.22265625 904.85888672 C-352.48222099 894.29062906 -363.04851144 883.52902872 -372.18359375 871.06201172 C-373.22118678 869.66084609 -374.25895365 868.25980917 -375.296875 866.85888672 C-377.94438949 863.27324386 -380.56955295 859.67211836 -383.18359375 856.06201172 C-384.45203125 857.34785156 -384.45203125 857.34785156 -385.74609375 858.65966797 C-386.89178835 859.81475351 -388.03762963 860.96969357 -389.18359375 862.12451172 C-389.73660156 862.68589844 -390.28960938 863.24728516 -390.859375 863.82568359 C-395.1270588 868.11789431 -399.5837252 872.12970411 -404.18359375 876.06201172 C-404.81201172 876.60237061 -405.44042969 877.14272949 -406.08789062 877.69946289 C-427.44713437 895.94243926 -450.68895307 911.22957083 -476.18359375 923.06201172 C-476.87259766 923.38234375 -477.56160156 923.70267578 -478.27148438 924.03271484 C-547.91970921 955.90992785 -626.93186197 956.97005069 -698.37109375 930.49951172 C-751.61198126 910.04960847 -802.93289604 875.3306697 -838.18359375 830.06201172 C-839.13264366 828.89958595 -840.08466334 827.73958081 -841.0390625 826.58154297 C-852.21973321 812.95700004 -861.5341858 798.40119612 -870.18359375 783.06201172 C-870.59609375 782.335625 -871.00859375 781.60923828 -871.43359375 780.86083984 C-898.60886577 732.58227065 -910.57147524 673.63537872 -898.18359375 619.06201172 C-897.99635742 618.21880371 -897.80912109 617.3755957 -897.61621094 616.50683594 C-888.16945603 575.07327103 -867.83999946 538.70662578 -839.3046875 507.40185547 C-837.3757304 505.27396357 -835.49323022 503.11480313 -833.62109375 500.93701172 C-827.64008787 494.08779531 -821.09300369 487.95741269 -814.18359375 482.06201172 C-813.28382813 481.27310547 -812.3840625 480.48419922 -811.45703125 479.67138672 C-796.10555927 466.30936566 -779.36983521 454.91277288 -762.18359375 444.06201172 C-761.48814453 443.62002441 -760.79269531 443.17803711 -760.07617188 442.72265625 C-749.5793498 436.06201172 -749.5793498 436.06201172 -747.18359375 436.06201172 C-752.4783302 430.59078405 -758.16093245 425.50857026 -763.94116211 420.55615234 C-776.69543606 409.58321945 -789.02073556 397.49519902 -799.18359375 384.06201172 C-799.95058594 383.11197266 -800.71757813 382.16193359 -801.5078125 381.18310547 C-837.48676695 336.05408725 -857.43415837 276.88214417 -851.55859375 219.06201172 C-848.77537678 195.62596714 -841.24855575 173.7621639 -830.18359375 153.06201172 C-829.69221924 152.13727051 -829.69221924 152.13727051 -829.19091797 151.19384766 C-806.96218954 109.7489539 -766.83888992 78.30025901 -722.05078125 64.44091797 C-716.64205084 62.86029973 -711.18134245 61.54347438 -705.68359375 60.31201172 C-704.80751465 60.11325439 -703.93143555 59.91449707 -703.02880859 59.7097168 C-688.15596922 56.55933235 -673.16067395 55.67707356 -657.99609375 55.74951172 C-656.79311142 55.75224594 -656.79311142 55.75224594 -655.56582642 55.7550354 C-642.24318509 55.80571192 -629.3037303 56.61367727 -616.18359375 59.06201172 C-615.21212402 59.23893555 -614.2406543 59.41585937 -613.23974609 59.59814453 C-598.98248524 62.24608488 -585.0151428 65.71233223 -571.18359375 70.06201172 C-570.38598633 70.31144531 -569.58837891 70.56087891 -568.76660156 70.81787109 C-526.17436685 84.3707376 -486.07564946 107.2907837 -451.18359375 135.06201172 C-450.24644531 135.80580078 -449.30929687 136.54958984 -448.34375 137.31591797 C-445.04673115 139.94481846 -441.75904506 142.57964812 -438.52734375 145.28857422 C-436.40762828 147.26314405 -436.40762828 147.26314405 -434.18359375 147.06201172 C-433.52617188 145.82451172 -433.52617188 145.82451172 -432.85546875 144.56201172 C-427.44749951 134.71335229 -421.17454086 125.84787243 -414.18359375 117.06201172 C-413.44834473 116.13291992 -413.44834473 116.13291992 -412.69824219 115.18505859 C-397.95836028 96.74788189 -377.48555591 79.2162487 -353.18359375 76.06201172 C-323.39982926 72.85547807 -297.60039197 81.70673262 -274.18359375 100.06201172 C-266.04427486 106.77099005 -266.04427486 106.77099005 -263.18359375 111.06201172 C-258.96655434 110.55085543 -256.95969553 108.20455394 -253.99609375 105.31201172 C-247.18283589 98.84460994 -239.81028383 93.22751364 -232.28125 87.62451172 C-230.33548132 86.17514957 -228.39931973 84.71388924 -226.46484375 83.24951172 C-162.21259046 34.96656422 -80.93691691 1.57653197 0 0 Z M-742.8125 233.51904297 C-747.34012377 238.61423212 -747.94857098 243.70879364 -747.7890625 250.35498047 C-745.9366239 261.69668517 -738.65221194 271.65591008 -731.18359375 280.06201172 C-730.67054688 280.69365234 -730.1575 281.32529297 -729.62890625 281.97607422 C-711.82716654 303.81928997 -683.28003029 318.55346135 -659.18359375 332.06201172 C-657.9308667 332.76608154 -657.9308667 332.76608154 -656.65283203 333.484375 C-628.07204788 349.40751712 -597.19223699 361.43924583 -566.61328125 372.91748047 C-565.44643799 373.35737305 -564.27959473 373.79726563 -563.07739258 374.25048828 C-560.95624395 375.045783 -558.83141383 375.8313757 -556.7019043 376.60400391 C-536.54253801 384.13289271 -522.79038088 396.67834593 -513.46875 416.04248047 C-505.84256735 433.96053272 -506.34685565 454.38610617 -513.49609375 472.37451172 C-521.91406774 491.03393775 -535.14072301 504.36347288 -554.18359375 512.06201172 C-558.74716724 513.70724458 -563.36583403 515.18129088 -567.98217773 516.67041016 C-609.55182703 530.19280045 -650.55589806 547.83343407 -688.18359375 570.06201172 C-689.08883789 570.59584473 -689.99408203 571.12967773 -690.92675781 571.6796875 C-712.70434046 584.61480029 -732.79965219 599.63170402 -751.18359375 617.06201172 C-751.69067871 617.54041504 -752.19776367 618.01881836 -752.72021484 618.51171875 C-775.36645663 640.02169308 -796.41550506 671.73970031 -797.38671875 703.96826172 C-797.75246586 730.04346798 -790.60222961 752.17729658 -773.18359375 772.06201172 C-772.60867188 772.76970703 -772.03375 773.47740234 -771.44140625 774.20654297 C-766.68185126 779.97949603 -761.07985272 784.49039175 -755.18359375 789.06201172 C-753.98863281 790.03267578 -753.98863281 790.03267578 -752.76953125 791.02294922 C-729.33813452 809.2473689 -697.58167167 819.9854998 -667.93359375 820.30029297 C-666.78267494 820.31498375 -666.78267494 820.31498375 -665.60850525 820.32997131 C-648.11045772 820.50718041 -631.29325201 820.17518499 -614.18359375 816.06201172 C-613.31105957 815.85833984 -612.43852539 815.65466797 -611.53955078 815.44482422 C-583.43961299 808.6920856 -557.88173912 795.80348378 -535.18359375 778.06201172 C-534.24515625 777.33626953 -533.30671875 776.61052734 -532.33984375 775.86279297 C-501.93711102 751.67473649 -479.23964338 721.12441915 -461.17919922 686.90332031 C-460.2966264 685.27105837 -459.32589827 683.68714954 -458.34375 682.11279297 C-455.23182018 673.92957011 -459.65504654 663.43290634 -461.64804077 655.17782593 C-473.25282486 606.84538361 -480.90261271 557.57532778 -485.18359375 508.06201172 C-485.25878235 507.20673889 -485.33397095 506.35146606 -485.41143799 505.47027588 C-487.87833629 477.11241777 -488.45423329 448.82126376 -488.43359375 420.37451172 C-488.43332687 419.57379745 -488.43306 418.77308319 -488.43278503 417.94810486 C-488.42992218 412.52375434 -488.4138291 407.09957474 -488.38671875 401.67529297 C-488.38359932 400.94189697 -488.38047989 400.20850098 -488.37726593 399.45288086 C-488.34164018 392.35482676 -488.24522003 385.28013686 -487.78515625 378.19384766 C-487.72011902 377.17510056 -487.65508179 376.15635345 -487.58807373 375.10673523 C-487.45947682 373.28444212 -487.30931399 371.46345771 -487.13116455 369.64533997 C-486.82576605 365.5235393 -486.88504552 362.91708381 -489.25878906 359.43823242 C-491.72021824 356.64545701 -494.32258264 354.43849675 -497.18359375 352.06201172 C-498.97148465 350.1266794 -500.68396952 348.13768174 -502.39794922 346.13671875 C-510.67510285 336.51964854 -519.66914943 327.48213567 -528.62109375 318.49951172 C-529.71997925 317.39373779 -529.71997925 317.39373779 -530.84106445 316.265625 C-534.90607741 312.21214596 -539.06842881 308.33496067 -543.41723633 304.58764648 C-545.59187935 302.70936808 -547.69784723 300.76157396 -549.80859375 298.81201172 C-555.45664149 293.71752455 -561.40908881 289.06248225 -567.4296875 284.421875 C-569.08756962 283.1364625 -570.73114649 281.83503036 -572.37109375 280.52685547 C-585.18870604 270.41696378 -598.95965786 261.88695013 -613.29101562 254.09863281 C-615.07313073 253.12251559 -616.83989684 252.118524 -618.60546875 251.11279297 C-647.22021102 235.15457132 -713.02124204 204.5850874 -742.8125 233.51904297 Z " fill="#C56F7D" transform="translate(1403.18359375,575.93798828125)"/>
<path d="M0 0 C17.01291201 8.2634144 27.08155355 34.48965503 34.89404297 50.71875 C36.11051717 53.227963 37.35383205 55.72298677 38.59765625 58.21875 C57.50844974 96.49887901 72.88903459 136.73184487 87 177 C85.68 177.33 84.36 177.66 83 178 C76.77466364 170.37915898 70.55585605 162.75663528 64.5 155 C60.55808133 149.95151452 56.54975536 144.96237628 52.5 140 C47.9914003 134.47537783 43.54785522 128.90699339 39.16186523 123.28466797 C36.22544809 119.53084299 33.23579489 115.82566956 30.21386719 112.14038086 C7.94210096 84.9592114 -17.77394332 51.08724214 -15 14 C-12.93714716 5.62032835 -9.74548365 -1.62424727 0 0 Z " fill="#C56F7D" transform="translate(893,442)"/>
<path d="M0 0 C4.70593369 3.52945027 7.37874652 8.24941952 8.33544922 14.02514648 C10.93618089 46.62475259 -9.25598659 78.23417583 -29.4375 102.12695312 C-31.86037393 105.03137325 -34.17987192 108.0133439 -36.5 111 C-40.98039742 116.74132797 -45.5595979 122.39697207 -50.1640625 128.0390625 C-53.65530083 132.32451618 -57.09818888 136.64329453 -60.5 141 C-64.972705 146.72820114 -69.54033615 152.37364966 -74.13549805 158.00390625 C-79.51056615 164.60149772 -84.76755158 171.28904412 -90 178 C-90.99 177.67 -91.98 177.34 -93 177 C-92.33202783 173.16191566 -91.25215341 169.66178879 -89.91796875 166.00390625 C-89.48709961 164.82159424 -89.05623047 163.63928223 -88.61230469 162.42114258 C-88.13793444 161.13472003 -87.66298265 159.8485118 -87.1875 158.5625 C-86.94390747 157.90140228 -86.70031494 157.24030457 -86.44934082 156.55917358 C-37.17043554 23.00726927 -37.17043554 23.00726927 -9.5625 1.0625 C-6.08062324 -0.381205 -3.73468482 -0.5335264 0 0 Z " fill="#C56F7D" transform="translate(1212,443)"/>
</svg>
